<mxfile host="drawio-plugin" modified="2023-07-01T17:05:47.481Z" agent="5.0 (Windows NT 6.2; Win64; x64) AppleWebKit/537.36 (KHTML, like Gecko) Chrome/87.0.4280.141 Safari/537.36" etag="lWWnAfV39_elogzbdI8M" version="13.7.9" type="embed"><diagram id="lMCECdiOliHJ0kIxP1SO" name="Page-1"><mxGraphModel dx="1093" dy="-15664" grid="0" gridSize="10" guides="1" tooltips="1" connect="1" arrows="1" fold="1" page="0" pageScale="1" pageWidth="850" pageHeight="1100" background="#ffffff" math="0" shadow="0"><root><mxCell id="0"/><mxCell id="1" parent="0"/><mxCell id="261" value="" style="shape=table;html=1;whiteSpace=wrap;startSize=0;container=1;collapsible=0;childLayout=tableLayout;fillColor=#f5f5f5;strokeColor=#666666;fontColor=#000000;" vertex="1" parent="1"><mxGeometry x="96.5" y="18555" width="217" height="318" as="geometry"/></mxCell><mxCell id="262" value="" style="shape=partialRectangle;html=1;whiteSpace=wrap;collapsible=0;dropTarget=0;pointerEvents=0;fillColor=none;top=0;left=0;bottom=0;right=0;points=[[0,0.5],[1,0.5]];portConstraint=eastwest;fontColor=#000000;" vertex="1" parent="261"><mxGeometry width="217" height="40" as="geometry"/></mxCell><mxCell id="263" value="" style="shape=partialRectangle;html=1;whiteSpace=wrap;connectable=0;fillColor=none;top=0;left=0;bottom=0;right=0;overflow=hidden;fontColor=#000000;" vertex="1" parent="262"><mxGeometry width="159" height="40" as="geometry"/></mxCell><mxCell id="264" value="0" style="shape=partialRectangle;html=1;whiteSpace=wrap;connectable=0;fillColor=none;top=0;left=0;bottom=0;right=0;overflow=hidden;fontColor=#000000;fontSize=15;" vertex="1" parent="262"><mxGeometry x="159" width="58" height="40" as="geometry"/></mxCell><mxCell id="265" value="" style="shape=partialRectangle;html=1;whiteSpace=wrap;collapsible=0;dropTarget=0;pointerEvents=0;fillColor=none;top=0;left=0;bottom=0;right=0;points=[[0,0.5],[1,0.5]];portConstraint=eastwest;fontColor=#000000;" vertex="1" parent="261"><mxGeometry y="40" width="217" height="40" as="geometry"/></mxCell><mxCell id="266" value="" style="shape=partialRectangle;html=1;whiteSpace=wrap;connectable=0;fillColor=none;top=0;left=0;bottom=0;right=0;overflow=hidden;fontColor=#000000;" vertex="1" parent="265"><mxGeometry width="159" height="40" as="geometry"/></mxCell><mxCell id="267" value="1" style="shape=partialRectangle;html=1;whiteSpace=wrap;connectable=0;fillColor=none;top=0;left=0;bottom=0;right=0;overflow=hidden;fontColor=#000000;fontSize=15;" vertex="1" parent="265"><mxGeometry x="159" width="58" height="40" as="geometry"/></mxCell><mxCell id="268" value="" style="shape=partialRectangle;html=1;whiteSpace=wrap;collapsible=0;dropTarget=0;pointerEvents=0;fillColor=none;top=0;left=0;bottom=0;right=0;points=[[0,0.5],[1,0.5]];portConstraint=eastwest;fontColor=#000000;" vertex="1" parent="261"><mxGeometry y="80" width="217" height="39" as="geometry"/></mxCell><mxCell id="269" value="" style="shape=partialRectangle;html=1;whiteSpace=wrap;connectable=0;fillColor=none;top=0;left=0;bottom=0;right=0;overflow=hidden;fontColor=#000000;" vertex="1" parent="268"><mxGeometry width="159" height="39" as="geometry"/></mxCell><mxCell id="270" value="&lt;font style=&quot;font-size: 15px&quot;&gt;2&lt;/font&gt;" style="shape=partialRectangle;html=1;whiteSpace=wrap;connectable=0;fillColor=none;top=0;left=0;bottom=0;right=0;overflow=hidden;fontColor=#000000;fontSize=15;" vertex="1" parent="268"><mxGeometry x="159" width="58" height="39" as="geometry"/></mxCell><mxCell id="271" style="shape=partialRectangle;html=1;whiteSpace=wrap;collapsible=0;dropTarget=0;pointerEvents=0;fillColor=none;top=0;left=0;bottom=0;right=0;points=[[0,0.5],[1,0.5]];portConstraint=eastwest;fontColor=#000000;" vertex="1" parent="261"><mxGeometry y="119" width="217" height="40" as="geometry"/></mxCell><mxCell id="272" style="shape=partialRectangle;html=1;whiteSpace=wrap;connectable=0;fillColor=none;top=0;left=0;bottom=0;right=0;overflow=hidden;fontColor=#000000;" vertex="1" parent="271"><mxGeometry width="159" height="40" as="geometry"/></mxCell><mxCell id="273" value="3" style="shape=partialRectangle;html=1;whiteSpace=wrap;connectable=0;fillColor=none;top=0;left=0;bottom=0;right=0;overflow=hidden;fontColor=#000000;fontSize=15;" vertex="1" parent="271"><mxGeometry x="159" width="58" height="40" as="geometry"/></mxCell><mxCell id="274" style="shape=partialRectangle;html=1;whiteSpace=wrap;collapsible=0;dropTarget=0;pointerEvents=0;fillColor=none;top=0;left=0;bottom=0;right=0;points=[[0,0.5],[1,0.5]];portConstraint=eastwest;fontColor=#000000;" vertex="1" parent="261"><mxGeometry y="159" width="217" height="40" as="geometry"/></mxCell><mxCell id="275" value="" style="shape=partialRectangle;html=1;whiteSpace=wrap;connectable=0;fillColor=none;top=0;left=0;bottom=0;right=0;overflow=hidden;fontColor=#000000;" vertex="1" parent="274"><mxGeometry width="159" height="40" as="geometry"/></mxCell><mxCell id="276" value="4" style="shape=partialRectangle;html=1;whiteSpace=wrap;connectable=0;fillColor=none;top=0;left=0;bottom=0;right=0;overflow=hidden;fontColor=#000000;fontSize=15;" vertex="1" parent="274"><mxGeometry x="159" width="58" height="40" as="geometry"/></mxCell><mxCell id="277" style="shape=partialRectangle;html=1;whiteSpace=wrap;collapsible=0;dropTarget=0;pointerEvents=0;fillColor=none;top=0;left=0;bottom=0;right=0;points=[[0,0.5],[1,0.5]];portConstraint=eastwest;fontColor=#000000;" vertex="1" parent="261"><mxGeometry y="199" width="217" height="40" as="geometry"/></mxCell><mxCell id="278" style="shape=partialRectangle;html=1;whiteSpace=wrap;connectable=0;fillColor=none;top=0;left=0;bottom=0;right=0;overflow=hidden;fontColor=#000000;" vertex="1" parent="277"><mxGeometry width="159" height="40" as="geometry"/></mxCell><mxCell id="279" value="5" style="shape=partialRectangle;html=1;whiteSpace=wrap;connectable=0;fillColor=none;top=0;left=0;bottom=0;right=0;overflow=hidden;fontColor=#000000;fontSize=15;" vertex="1" parent="277"><mxGeometry x="159" width="58" height="40" as="geometry"/></mxCell><mxCell id="280" style="shape=partialRectangle;html=1;whiteSpace=wrap;collapsible=0;dropTarget=0;pointerEvents=0;fillColor=none;top=0;left=0;bottom=0;right=0;points=[[0,0.5],[1,0.5]];portConstraint=eastwest;fontColor=#000000;fontStyle=1" vertex="1" parent="261"><mxGeometry y="239" width="217" height="39" as="geometry"/></mxCell><mxCell id="281" style="shape=partialRectangle;html=1;whiteSpace=wrap;connectable=0;top=0;left=0;bottom=0;right=0;overflow=hidden;sketch=1;fillColor=none;fontColor=#000000;" vertex="1" parent="280"><mxGeometry width="159" height="39" as="geometry"/></mxCell><mxCell id="282" value="6" style="shape=partialRectangle;html=1;whiteSpace=wrap;connectable=0;top=0;left=0;bottom=0;right=0;overflow=hidden;fontSize=15;sketch=1;fillColor=none;fontColor=#000000;" vertex="1" parent="280"><mxGeometry x="159" width="58" height="39" as="geometry"/></mxCell><mxCell id="283" style="shape=partialRectangle;html=1;whiteSpace=wrap;collapsible=0;dropTarget=0;pointerEvents=0;fillColor=none;top=0;left=0;bottom=0;right=0;points=[[0,0.5],[1,0.5]];portConstraint=eastwest;fontColor=#000000;" vertex="1" parent="261"><mxGeometry y="278" width="217" height="40" as="geometry"/></mxCell><mxCell id="284" style="shape=partialRectangle;html=1;whiteSpace=wrap;connectable=0;fillColor=none;top=0;left=0;bottom=0;right=0;overflow=hidden;fontColor=#000000;" vertex="1" parent="283"><mxGeometry width="159" height="40" as="geometry"/></mxCell><mxCell id="285" value="7" style="shape=partialRectangle;html=1;whiteSpace=wrap;connectable=0;fillColor=none;top=0;left=0;bottom=0;right=0;overflow=hidden;fontColor=#000000;fontSize=15;" vertex="1" parent="283"><mxGeometry x="159" width="58" height="40" as="geometry"/></mxCell><mxCell id="221" value="" style="shape=table;html=1;whiteSpace=wrap;startSize=0;container=1;collapsible=0;childLayout=tableLayout;fillColor=#f5f5f5;strokeColor=#666666;fontColor=#000000;" vertex="1" parent="1"><mxGeometry x="8" y="18158" width="217" height="318" as="geometry"/></mxCell><mxCell id="222" value="" style="shape=partialRectangle;html=1;whiteSpace=wrap;collapsible=0;dropTarget=0;pointerEvents=0;fillColor=none;top=0;left=0;bottom=0;right=0;points=[[0,0.5],[1,0.5]];portConstraint=eastwest;fontColor=#000000;" vertex="1" parent="221"><mxGeometry width="217" height="40" as="geometry"/></mxCell><mxCell id="223" value="" style="shape=partialRectangle;html=1;whiteSpace=wrap;connectable=0;fillColor=none;top=0;left=0;bottom=0;right=0;overflow=hidden;fontColor=#000000;" vertex="1" parent="222"><mxGeometry width="159" height="40" as="geometry"/></mxCell><mxCell id="224" value="0" style="shape=partialRectangle;html=1;whiteSpace=wrap;connectable=0;fillColor=none;top=0;left=0;bottom=0;right=0;overflow=hidden;fontColor=#000000;fontSize=15;" vertex="1" parent="222"><mxGeometry x="159" width="58" height="40" as="geometry"/></mxCell><mxCell id="225" value="" style="shape=partialRectangle;html=1;whiteSpace=wrap;collapsible=0;dropTarget=0;pointerEvents=0;fillColor=none;top=0;left=0;bottom=0;right=0;points=[[0,0.5],[1,0.5]];portConstraint=eastwest;fontColor=#000000;" vertex="1" parent="221"><mxGeometry y="40" width="217" height="40" as="geometry"/></mxCell><mxCell id="226" value="" style="shape=partialRectangle;html=1;whiteSpace=wrap;connectable=0;fillColor=none;top=0;left=0;bottom=0;right=0;overflow=hidden;fontColor=#000000;" vertex="1" parent="225"><mxGeometry width="159" height="40" as="geometry"/></mxCell><mxCell id="227" value="1" style="shape=partialRectangle;html=1;whiteSpace=wrap;connectable=0;fillColor=none;top=0;left=0;bottom=0;right=0;overflow=hidden;fontColor=#000000;fontSize=15;" vertex="1" parent="225"><mxGeometry x="159" width="58" height="40" as="geometry"/></mxCell><mxCell id="228" value="" style="shape=partialRectangle;html=1;whiteSpace=wrap;collapsible=0;dropTarget=0;pointerEvents=0;fillColor=none;top=0;left=0;bottom=0;right=0;points=[[0,0.5],[1,0.5]];portConstraint=eastwest;fontColor=#000000;" vertex="1" parent="221"><mxGeometry y="80" width="217" height="39" as="geometry"/></mxCell><mxCell id="229" value="" style="shape=partialRectangle;html=1;whiteSpace=wrap;connectable=0;fillColor=none;top=0;left=0;bottom=0;right=0;overflow=hidden;fontColor=#000000;" vertex="1" parent="228"><mxGeometry width="159" height="39" as="geometry"/></mxCell><mxCell id="230" value="&lt;font style=&quot;font-size: 15px&quot;&gt;2&lt;/font&gt;" style="shape=partialRectangle;html=1;whiteSpace=wrap;connectable=0;fillColor=none;top=0;left=0;bottom=0;right=0;overflow=hidden;fontColor=#000000;fontSize=15;" vertex="1" parent="228"><mxGeometry x="159" width="58" height="39" as="geometry"/></mxCell><mxCell id="231" style="shape=partialRectangle;html=1;whiteSpace=wrap;collapsible=0;dropTarget=0;pointerEvents=0;fillColor=none;top=0;left=0;bottom=0;right=0;points=[[0,0.5],[1,0.5]];portConstraint=eastwest;fontColor=#000000;" vertex="1" parent="221"><mxGeometry y="119" width="217" height="40" as="geometry"/></mxCell><mxCell id="232" style="shape=partialRectangle;html=1;whiteSpace=wrap;connectable=0;fillColor=none;top=0;left=0;bottom=0;right=0;overflow=hidden;fontColor=#000000;" vertex="1" parent="231"><mxGeometry width="159" height="40" as="geometry"/></mxCell><mxCell id="233" value="3" style="shape=partialRectangle;html=1;whiteSpace=wrap;connectable=0;fillColor=none;top=0;left=0;bottom=0;right=0;overflow=hidden;fontColor=#000000;fontSize=15;" vertex="1" parent="231"><mxGeometry x="159" width="58" height="40" as="geometry"/></mxCell><mxCell id="234" style="shape=partialRectangle;html=1;whiteSpace=wrap;collapsible=0;dropTarget=0;pointerEvents=0;fillColor=none;top=0;left=0;bottom=0;right=0;points=[[0,0.5],[1,0.5]];portConstraint=eastwest;fontColor=#000000;" vertex="1" parent="221"><mxGeometry y="159" width="217" height="40" as="geometry"/></mxCell><mxCell id="235" value="" style="shape=partialRectangle;html=1;whiteSpace=wrap;connectable=0;fillColor=none;top=0;left=0;bottom=0;right=0;overflow=hidden;fontColor=#000000;" vertex="1" parent="234"><mxGeometry width="159" height="40" as="geometry"/></mxCell><mxCell id="236" value="4" style="shape=partialRectangle;html=1;whiteSpace=wrap;connectable=0;fillColor=none;top=0;left=0;bottom=0;right=0;overflow=hidden;fontColor=#000000;fontSize=15;" vertex="1" parent="234"><mxGeometry x="159" width="58" height="40" as="geometry"/></mxCell><mxCell id="237" style="shape=partialRectangle;html=1;whiteSpace=wrap;collapsible=0;dropTarget=0;pointerEvents=0;fillColor=none;top=0;left=0;bottom=0;right=0;points=[[0,0.5],[1,0.5]];portConstraint=eastwest;fontColor=#000000;" vertex="1" parent="221"><mxGeometry y="199" width="217" height="40" as="geometry"/></mxCell><mxCell id="238" style="shape=partialRectangle;html=1;whiteSpace=wrap;connectable=0;fillColor=none;top=0;left=0;bottom=0;right=0;overflow=hidden;fontColor=#000000;" vertex="1" parent="237"><mxGeometry width="159" height="40" as="geometry"/></mxCell><mxCell id="239" value="5" style="shape=partialRectangle;html=1;whiteSpace=wrap;connectable=0;fillColor=none;top=0;left=0;bottom=0;right=0;overflow=hidden;fontColor=#000000;fontSize=15;" vertex="1" parent="237"><mxGeometry x="159" width="58" height="40" as="geometry"/></mxCell><mxCell id="240" style="shape=partialRectangle;html=1;whiteSpace=wrap;collapsible=0;dropTarget=0;pointerEvents=0;fillColor=none;top=0;left=0;bottom=0;right=0;points=[[0,0.5],[1,0.5]];portConstraint=eastwest;fontColor=#000000;fontStyle=1" vertex="1" parent="221"><mxGeometry y="239" width="217" height="39" as="geometry"/></mxCell><mxCell id="241" style="shape=partialRectangle;html=1;whiteSpace=wrap;connectable=0;fillColor=#60a917;top=0;left=0;bottom=0;right=0;overflow=hidden;strokeColor=#2D7600;sketch=1;fontColor=#000000;" vertex="1" parent="240"><mxGeometry width="159" height="39" as="geometry"/></mxCell><mxCell id="242" value="&lt;b&gt;6&lt;/b&gt;" style="shape=partialRectangle;html=1;whiteSpace=wrap;connectable=0;fillColor=#60a917;top=0;left=0;bottom=0;right=0;overflow=hidden;fontSize=15;strokeColor=#2D7600;sketch=1;fontColor=#000000;" vertex="1" parent="240"><mxGeometry x="159" width="58" height="39" as="geometry"/></mxCell><mxCell id="243" style="shape=partialRectangle;html=1;whiteSpace=wrap;collapsible=0;dropTarget=0;pointerEvents=0;fillColor=none;top=0;left=0;bottom=0;right=0;points=[[0,0.5],[1,0.5]];portConstraint=eastwest;fontColor=#000000;" vertex="1" parent="221"><mxGeometry y="278" width="217" height="40" as="geometry"/></mxCell><mxCell id="244" style="shape=partialRectangle;html=1;whiteSpace=wrap;connectable=0;fillColor=none;top=0;left=0;bottom=0;right=0;overflow=hidden;fontColor=#000000;" vertex="1" parent="243"><mxGeometry width="159" height="40" as="geometry"/></mxCell><mxCell id="245" value="7" style="shape=partialRectangle;html=1;whiteSpace=wrap;connectable=0;fillColor=none;top=0;left=0;bottom=0;right=0;overflow=hidden;fontColor=#000000;fontSize=15;" vertex="1" parent="243"><mxGeometry x="159" width="58" height="40" as="geometry"/></mxCell><mxCell id="170" value="" style="shape=table;html=1;whiteSpace=wrap;startSize=0;container=1;collapsible=0;childLayout=tableLayout;fillColor=#f5f5f5;strokeColor=#666666;fontColor=#000000;" vertex="1" parent="1"><mxGeometry x="101" y="17778" width="217" height="318" as="geometry"/></mxCell><mxCell id="171" value="" style="shape=partialRectangle;html=1;whiteSpace=wrap;collapsible=0;dropTarget=0;pointerEvents=0;fillColor=none;top=0;left=0;bottom=0;right=0;points=[[0,0.5],[1,0.5]];portConstraint=eastwest;fontColor=#000000;" vertex="1" parent="170"><mxGeometry width="217" height="40" as="geometry"/></mxCell><mxCell id="172" value="" style="shape=partialRectangle;html=1;whiteSpace=wrap;connectable=0;fillColor=none;top=0;left=0;bottom=0;right=0;overflow=hidden;fontColor=#000000;" vertex="1" parent="171"><mxGeometry width="159" height="40" as="geometry"/></mxCell><mxCell id="173" value="0" style="shape=partialRectangle;html=1;whiteSpace=wrap;connectable=0;fillColor=none;top=0;left=0;bottom=0;right=0;overflow=hidden;fontColor=#000000;fontSize=15;" vertex="1" parent="171"><mxGeometry x="159" width="58" height="40" as="geometry"/></mxCell><mxCell id="174" value="" style="shape=partialRectangle;html=1;whiteSpace=wrap;collapsible=0;dropTarget=0;pointerEvents=0;fillColor=none;top=0;left=0;bottom=0;right=0;points=[[0,0.5],[1,0.5]];portConstraint=eastwest;fontColor=#000000;" vertex="1" parent="170"><mxGeometry y="40" width="217" height="40" as="geometry"/></mxCell><mxCell id="175" value="" style="shape=partialRectangle;html=1;whiteSpace=wrap;connectable=0;fillColor=none;top=0;left=0;bottom=0;right=0;overflow=hidden;fontColor=#000000;" vertex="1" parent="174"><mxGeometry width="159" height="40" as="geometry"/></mxCell><mxCell id="176" value="1" style="shape=partialRectangle;html=1;whiteSpace=wrap;connectable=0;fillColor=none;top=0;left=0;bottom=0;right=0;overflow=hidden;fontColor=#000000;fontSize=15;" vertex="1" parent="174"><mxGeometry x="159" width="58" height="40" as="geometry"/></mxCell><mxCell id="177" value="" style="shape=partialRectangle;html=1;whiteSpace=wrap;collapsible=0;dropTarget=0;pointerEvents=0;fillColor=none;top=0;left=0;bottom=0;right=0;points=[[0,0.5],[1,0.5]];portConstraint=eastwest;fontColor=#000000;" vertex="1" parent="170"><mxGeometry y="80" width="217" height="39" as="geometry"/></mxCell><mxCell id="178" value="" style="shape=partialRectangle;html=1;whiteSpace=wrap;connectable=0;fillColor=none;top=0;left=0;bottom=0;right=0;overflow=hidden;fontColor=#000000;" vertex="1" parent="177"><mxGeometry width="159" height="39" as="geometry"/></mxCell><mxCell id="179" value="&lt;font style=&quot;font-size: 15px&quot;&gt;2&lt;/font&gt;" style="shape=partialRectangle;html=1;whiteSpace=wrap;connectable=0;fillColor=none;top=0;left=0;bottom=0;right=0;overflow=hidden;fontColor=#000000;fontSize=15;" vertex="1" parent="177"><mxGeometry x="159" width="58" height="39" as="geometry"/></mxCell><mxCell id="180" style="shape=partialRectangle;html=1;whiteSpace=wrap;collapsible=0;dropTarget=0;pointerEvents=0;fillColor=none;top=0;left=0;bottom=0;right=0;points=[[0,0.5],[1,0.5]];portConstraint=eastwest;fontColor=#000000;" vertex="1" parent="170"><mxGeometry y="119" width="217" height="40" as="geometry"/></mxCell><mxCell id="181" style="shape=partialRectangle;html=1;whiteSpace=wrap;connectable=0;fillColor=none;top=0;left=0;bottom=0;right=0;overflow=hidden;fontColor=#000000;" vertex="1" parent="180"><mxGeometry width="159" height="40" as="geometry"/></mxCell><mxCell id="182" value="3" style="shape=partialRectangle;html=1;whiteSpace=wrap;connectable=0;fillColor=none;top=0;left=0;bottom=0;right=0;overflow=hidden;fontColor=#000000;fontSize=15;" vertex="1" parent="180"><mxGeometry x="159" width="58" height="40" as="geometry"/></mxCell><mxCell id="183" style="shape=partialRectangle;html=1;whiteSpace=wrap;collapsible=0;dropTarget=0;pointerEvents=0;fillColor=none;top=0;left=0;bottom=0;right=0;points=[[0,0.5],[1,0.5]];portConstraint=eastwest;fontColor=#000000;" vertex="1" parent="170"><mxGeometry y="159" width="217" height="40" as="geometry"/></mxCell><mxCell id="184" value="" style="shape=partialRectangle;html=1;whiteSpace=wrap;connectable=0;fillColor=none;top=0;left=0;bottom=0;right=0;overflow=hidden;fontColor=#000000;" vertex="1" parent="183"><mxGeometry width="159" height="40" as="geometry"/></mxCell><mxCell id="185" value="4" style="shape=partialRectangle;html=1;whiteSpace=wrap;connectable=0;fillColor=none;top=0;left=0;bottom=0;right=0;overflow=hidden;fontColor=#000000;fontSize=15;" vertex="1" parent="183"><mxGeometry x="159" width="58" height="40" as="geometry"/></mxCell><mxCell id="186" style="shape=partialRectangle;html=1;whiteSpace=wrap;collapsible=0;dropTarget=0;pointerEvents=0;fillColor=none;top=0;left=0;bottom=0;right=0;points=[[0,0.5],[1,0.5]];portConstraint=eastwest;fontColor=#000000;" vertex="1" parent="170"><mxGeometry y="199" width="217" height="40" as="geometry"/></mxCell><mxCell id="187" style="shape=partialRectangle;html=1;whiteSpace=wrap;connectable=0;fillColor=none;top=0;left=0;bottom=0;right=0;overflow=hidden;fontColor=#000000;" vertex="1" parent="186"><mxGeometry width="159" height="40" as="geometry"/></mxCell><mxCell id="188" value="5" style="shape=partialRectangle;html=1;whiteSpace=wrap;connectable=0;fillColor=none;top=0;left=0;bottom=0;right=0;overflow=hidden;fontColor=#000000;fontSize=15;" vertex="1" parent="186"><mxGeometry x="159" width="58" height="40" as="geometry"/></mxCell><mxCell id="189" style="shape=partialRectangle;html=1;whiteSpace=wrap;collapsible=0;dropTarget=0;pointerEvents=0;fillColor=none;top=0;left=0;bottom=0;right=0;points=[[0,0.5],[1,0.5]];portConstraint=eastwest;fontColor=#000000;fontStyle=1" vertex="1" parent="170"><mxGeometry y="239" width="217" height="39" as="geometry"/></mxCell><mxCell id="190" style="shape=partialRectangle;html=1;whiteSpace=wrap;connectable=0;fillColor=#60a917;top=0;left=0;bottom=0;right=0;overflow=hidden;strokeColor=#2D7600;sketch=1;fontColor=#000000;" vertex="1" parent="189"><mxGeometry width="159" height="39" as="geometry"/></mxCell><mxCell id="191" value="&lt;b&gt;6&lt;/b&gt;" style="shape=partialRectangle;html=1;whiteSpace=wrap;connectable=0;fillColor=#60a917;top=0;left=0;bottom=0;right=0;overflow=hidden;fontSize=15;strokeColor=#2D7600;sketch=1;fontColor=#000000;" vertex="1" parent="189"><mxGeometry x="159" width="58" height="39" as="geometry"/></mxCell><mxCell id="192" style="shape=partialRectangle;html=1;whiteSpace=wrap;collapsible=0;dropTarget=0;pointerEvents=0;fillColor=none;top=0;left=0;bottom=0;right=0;points=[[0,0.5],[1,0.5]];portConstraint=eastwest;fontColor=#000000;" vertex="1" parent="170"><mxGeometry y="278" width="217" height="40" as="geometry"/></mxCell><mxCell id="193" style="shape=partialRectangle;html=1;whiteSpace=wrap;connectable=0;fillColor=none;top=0;left=0;bottom=0;right=0;overflow=hidden;fontColor=#000000;" vertex="1" parent="192"><mxGeometry width="159" height="40" as="geometry"/></mxCell><mxCell id="194" value="7" style="shape=partialRectangle;html=1;whiteSpace=wrap;connectable=0;fillColor=none;top=0;left=0;bottom=0;right=0;overflow=hidden;fontColor=#000000;fontSize=15;" vertex="1" parent="192"><mxGeometry x="159" width="58" height="40" as="geometry"/></mxCell><mxCell id="121" value="" style="shape=table;html=1;whiteSpace=wrap;startSize=0;container=1;collapsible=0;childLayout=tableLayout;fillColor=#f5f5f5;strokeColor=#666666;fontColor=#000000;" vertex="1" parent="1"><mxGeometry x="581.5" y="16972" width="217" height="318" as="geometry"/></mxCell><mxCell id="122" value="" style="shape=partialRectangle;html=1;whiteSpace=wrap;collapsible=0;dropTarget=0;pointerEvents=0;fillColor=none;top=0;left=0;bottom=0;right=0;points=[[0,0.5],[1,0.5]];portConstraint=eastwest;fontColor=#000000;" vertex="1" parent="121"><mxGeometry width="217" height="40" as="geometry"/></mxCell><mxCell id="123" value="" style="shape=partialRectangle;html=1;whiteSpace=wrap;connectable=0;fillColor=none;top=0;left=0;bottom=0;right=0;overflow=hidden;fontColor=#000000;" vertex="1" parent="122"><mxGeometry width="159" height="40" as="geometry"/></mxCell><mxCell id="124" value="0" style="shape=partialRectangle;html=1;whiteSpace=wrap;connectable=0;fillColor=none;top=0;left=0;bottom=0;right=0;overflow=hidden;fontColor=#000000;fontSize=15;" vertex="1" parent="122"><mxGeometry x="159" width="58" height="40" as="geometry"/></mxCell><mxCell id="125" value="" style="shape=partialRectangle;html=1;whiteSpace=wrap;collapsible=0;dropTarget=0;pointerEvents=0;fillColor=none;top=0;left=0;bottom=0;right=0;points=[[0,0.5],[1,0.5]];portConstraint=eastwest;fontColor=#000000;" vertex="1" parent="121"><mxGeometry y="40" width="217" height="40" as="geometry"/></mxCell><mxCell id="126" value="" style="shape=partialRectangle;html=1;whiteSpace=wrap;connectable=0;fillColor=none;top=0;left=0;bottom=0;right=0;overflow=hidden;fontColor=#000000;" vertex="1" parent="125"><mxGeometry width="159" height="40" as="geometry"/></mxCell><mxCell id="127" value="1" style="shape=partialRectangle;html=1;whiteSpace=wrap;connectable=0;fillColor=none;top=0;left=0;bottom=0;right=0;overflow=hidden;fontColor=#000000;fontSize=15;" vertex="1" parent="125"><mxGeometry x="159" width="58" height="40" as="geometry"/></mxCell><mxCell id="128" value="" style="shape=partialRectangle;html=1;whiteSpace=wrap;collapsible=0;dropTarget=0;pointerEvents=0;fillColor=none;top=0;left=0;bottom=0;right=0;points=[[0,0.5],[1,0.5]];portConstraint=eastwest;fontColor=#000000;" vertex="1" parent="121"><mxGeometry y="80" width="217" height="39" as="geometry"/></mxCell><mxCell id="129" value="" style="shape=partialRectangle;html=1;whiteSpace=wrap;connectable=0;fillColor=none;top=0;left=0;bottom=0;right=0;overflow=hidden;fontColor=#000000;" vertex="1" parent="128"><mxGeometry width="159" height="39" as="geometry"/></mxCell><mxCell id="130" value="&lt;font style=&quot;font-size: 17px&quot;&gt;2&lt;/font&gt;" style="shape=partialRectangle;html=1;whiteSpace=wrap;connectable=0;fillColor=none;top=0;left=0;bottom=0;right=0;overflow=hidden;fontColor=#000000;fontSize=15;" vertex="1" parent="128"><mxGeometry x="159" width="58" height="39" as="geometry"/></mxCell><mxCell id="131" style="shape=partialRectangle;html=1;whiteSpace=wrap;collapsible=0;dropTarget=0;pointerEvents=0;fillColor=none;top=0;left=0;bottom=0;right=0;points=[[0,0.5],[1,0.5]];portConstraint=eastwest;fontColor=#000000;" vertex="1" parent="121"><mxGeometry y="119" width="217" height="40" as="geometry"/></mxCell><mxCell id="132" style="shape=partialRectangle;html=1;whiteSpace=wrap;connectable=0;fillColor=none;top=0;left=0;bottom=0;right=0;overflow=hidden;fontColor=#000000;" vertex="1" parent="131"><mxGeometry width="159" height="40" as="geometry"/></mxCell><mxCell id="133" value="3" style="shape=partialRectangle;html=1;whiteSpace=wrap;connectable=0;fillColor=none;top=0;left=0;bottom=0;right=0;overflow=hidden;fontColor=#000000;fontSize=15;" vertex="1" parent="131"><mxGeometry x="159" width="58" height="40" as="geometry"/></mxCell><mxCell id="134" style="shape=partialRectangle;html=1;whiteSpace=wrap;collapsible=0;dropTarget=0;pointerEvents=0;fillColor=none;top=0;left=0;bottom=0;right=0;points=[[0,0.5],[1,0.5]];portConstraint=eastwest;fontColor=#000000;" vertex="1" parent="121"><mxGeometry y="159" width="217" height="40" as="geometry"/></mxCell><mxCell id="135" value="" style="shape=partialRectangle;html=1;whiteSpace=wrap;connectable=0;fillColor=none;top=0;left=0;bottom=0;right=0;overflow=hidden;fontColor=#000000;" vertex="1" parent="134"><mxGeometry width="159" height="40" as="geometry"/></mxCell><mxCell id="136" value="&lt;b&gt;4&lt;/b&gt;" style="shape=partialRectangle;html=1;whiteSpace=wrap;connectable=0;fillColor=none;top=0;left=0;bottom=0;right=0;overflow=hidden;fontColor=#000000;fontSize=15;" vertex="1" parent="134"><mxGeometry x="159" width="58" height="40" as="geometry"/></mxCell><mxCell id="137" style="shape=partialRectangle;html=1;whiteSpace=wrap;collapsible=0;dropTarget=0;pointerEvents=0;fillColor=none;top=0;left=0;bottom=0;right=0;points=[[0,0.5],[1,0.5]];portConstraint=eastwest;fontColor=#000000;" vertex="1" parent="121"><mxGeometry y="199" width="217" height="40" as="geometry"/></mxCell><mxCell id="138" style="shape=partialRectangle;html=1;whiteSpace=wrap;connectable=0;fillColor=none;top=0;left=0;bottom=0;right=0;overflow=hidden;fontColor=#000000;" vertex="1" parent="137"><mxGeometry width="159" height="40" as="geometry"/></mxCell><mxCell id="139" value="5" style="shape=partialRectangle;html=1;whiteSpace=wrap;connectable=0;fillColor=none;top=0;left=0;bottom=0;right=0;overflow=hidden;fontColor=#000000;fontSize=15;" vertex="1" parent="137"><mxGeometry x="159" width="58" height="40" as="geometry"/></mxCell><mxCell id="140" style="shape=partialRectangle;html=1;whiteSpace=wrap;collapsible=0;dropTarget=0;pointerEvents=0;fillColor=none;top=0;left=0;bottom=0;right=0;points=[[0,0.5],[1,0.5]];portConstraint=eastwest;fontColor=#000000;" vertex="1" parent="121"><mxGeometry y="239" width="217" height="39" as="geometry"/></mxCell><mxCell id="141" style="shape=partialRectangle;html=1;whiteSpace=wrap;connectable=0;fillColor=none;top=0;left=0;bottom=0;right=0;overflow=hidden;fontColor=#000000;" vertex="1" parent="140"><mxGeometry width="159" height="39" as="geometry"/></mxCell><mxCell id="142" value="6" style="shape=partialRectangle;html=1;whiteSpace=wrap;connectable=0;fillColor=none;top=0;left=0;bottom=0;right=0;overflow=hidden;fontColor=#000000;fontSize=15;" vertex="1" parent="140"><mxGeometry x="159" width="58" height="39" as="geometry"/></mxCell><mxCell id="143" style="shape=partialRectangle;html=1;whiteSpace=wrap;collapsible=0;dropTarget=0;pointerEvents=0;fillColor=none;top=0;left=0;bottom=0;right=0;points=[[0,0.5],[1,0.5]];portConstraint=eastwest;fontColor=#000000;" vertex="1" parent="121"><mxGeometry y="278" width="217" height="40" as="geometry"/></mxCell><mxCell id="144" style="shape=partialRectangle;html=1;whiteSpace=wrap;connectable=0;fillColor=none;top=0;left=0;bottom=0;right=0;overflow=hidden;fontColor=#000000;" vertex="1" parent="143"><mxGeometry width="159" height="40" as="geometry"/></mxCell><mxCell id="145" value="7" style="shape=partialRectangle;html=1;whiteSpace=wrap;connectable=0;fillColor=none;top=0;left=0;bottom=0;right=0;overflow=hidden;fontColor=#000000;fontSize=15;" vertex="1" parent="143"><mxGeometry x="159" width="58" height="40" as="geometry"/></mxCell><mxCell id="39" value="" style="shape=table;html=1;whiteSpace=wrap;startSize=0;container=1;collapsible=0;childLayout=tableLayout;fillColor=#f5f5f5;strokeColor=#666666;fontColor=#000000;" parent="1" vertex="1"><mxGeometry x="602" y="16550" width="217" height="318" as="geometry"/></mxCell><mxCell id="40" value="" style="shape=partialRectangle;html=1;whiteSpace=wrap;collapsible=0;dropTarget=0;pointerEvents=0;fillColor=none;top=0;left=0;bottom=0;right=0;points=[[0,0.5],[1,0.5]];portConstraint=eastwest;fontColor=#000000;" parent="39" vertex="1"><mxGeometry width="217" height="40" as="geometry"/></mxCell><mxCell id="41" value="" style="shape=partialRectangle;html=1;whiteSpace=wrap;connectable=0;fillColor=none;top=0;left=0;bottom=0;right=0;overflow=hidden;fontColor=#000000;" parent="40" vertex="1"><mxGeometry width="159" height="40" as="geometry"/></mxCell><mxCell id="42" value="0" style="shape=partialRectangle;html=1;whiteSpace=wrap;connectable=0;fillColor=none;top=0;left=0;bottom=0;right=0;overflow=hidden;fontColor=#000000;fontSize=15;" parent="40" vertex="1"><mxGeometry x="159" width="58" height="40" as="geometry"/></mxCell><mxCell id="44" value="" style="shape=partialRectangle;html=1;whiteSpace=wrap;collapsible=0;dropTarget=0;pointerEvents=0;fillColor=none;top=0;left=0;bottom=0;right=0;points=[[0,0.5],[1,0.5]];portConstraint=eastwest;fontColor=#000000;" parent="39" vertex="1"><mxGeometry y="40" width="217" height="40" as="geometry"/></mxCell><mxCell id="45" value="" style="shape=partialRectangle;html=1;whiteSpace=wrap;connectable=0;fillColor=none;top=0;left=0;bottom=0;right=0;overflow=hidden;fontColor=#000000;" parent="44" vertex="1"><mxGeometry width="159" height="40" as="geometry"/></mxCell><mxCell id="46" value="1" style="shape=partialRectangle;html=1;whiteSpace=wrap;connectable=0;fillColor=none;top=0;left=0;bottom=0;right=0;overflow=hidden;fontColor=#000000;fontSize=15;" parent="44" vertex="1"><mxGeometry x="159" width="58" height="40" as="geometry"/></mxCell><mxCell id="48" value="" style="shape=partialRectangle;html=1;whiteSpace=wrap;collapsible=0;dropTarget=0;pointerEvents=0;fillColor=none;top=0;left=0;bottom=0;right=0;points=[[0,0.5],[1,0.5]];portConstraint=eastwest;fontColor=#000000;" parent="39" vertex="1"><mxGeometry y="80" width="217" height="39" as="geometry"/></mxCell><mxCell id="49" value="" style="shape=partialRectangle;html=1;whiteSpace=wrap;connectable=0;fillColor=none;top=0;left=0;bottom=0;right=0;overflow=hidden;fontColor=#000000;" parent="48" vertex="1"><mxGeometry width="159" height="39" as="geometry"/></mxCell><mxCell id="50" value="&lt;b&gt;&lt;font style=&quot;font-size: 17px&quot;&gt;2&lt;/font&gt;&lt;/b&gt;" style="shape=partialRectangle;html=1;whiteSpace=wrap;connectable=0;fillColor=none;top=0;left=0;bottom=0;right=0;overflow=hidden;fontColor=#000000;fontSize=15;" parent="48" vertex="1"><mxGeometry x="159" width="58" height="39" as="geometry"/></mxCell><mxCell id="64" style="shape=partialRectangle;html=1;whiteSpace=wrap;collapsible=0;dropTarget=0;pointerEvents=0;fillColor=none;top=0;left=0;bottom=0;right=0;points=[[0,0.5],[1,0.5]];portConstraint=eastwest;fontColor=#000000;" parent="39" vertex="1"><mxGeometry y="119" width="217" height="40" as="geometry"/></mxCell><mxCell id="65" style="shape=partialRectangle;html=1;whiteSpace=wrap;connectable=0;fillColor=none;top=0;left=0;bottom=0;right=0;overflow=hidden;fontColor=#000000;" parent="64" vertex="1"><mxGeometry width="159" height="40" as="geometry"/></mxCell><mxCell id="66" value="3" style="shape=partialRectangle;html=1;whiteSpace=wrap;connectable=0;fillColor=none;top=0;left=0;bottom=0;right=0;overflow=hidden;fontColor=#000000;fontSize=15;" parent="64" vertex="1"><mxGeometry x="159" width="58" height="40" as="geometry"/></mxCell><mxCell id="61" style="shape=partialRectangle;html=1;whiteSpace=wrap;collapsible=0;dropTarget=0;pointerEvents=0;fillColor=none;top=0;left=0;bottom=0;right=0;points=[[0,0.5],[1,0.5]];portConstraint=eastwest;fontColor=#000000;" parent="39" vertex="1"><mxGeometry y="159" width="217" height="40" as="geometry"/></mxCell><mxCell id="62" value="" style="shape=partialRectangle;html=1;whiteSpace=wrap;connectable=0;fillColor=none;top=0;left=0;bottom=0;right=0;overflow=hidden;fontColor=#000000;" parent="61" vertex="1"><mxGeometry width="159" height="40" as="geometry"/></mxCell><mxCell id="63" value="4" style="shape=partialRectangle;html=1;whiteSpace=wrap;connectable=0;fillColor=none;top=0;left=0;bottom=0;right=0;overflow=hidden;fontColor=#000000;fontSize=15;" parent="61" vertex="1"><mxGeometry x="159" width="58" height="40" as="geometry"/></mxCell><mxCell id="58" style="shape=partialRectangle;html=1;whiteSpace=wrap;collapsible=0;dropTarget=0;pointerEvents=0;fillColor=none;top=0;left=0;bottom=0;right=0;points=[[0,0.5],[1,0.5]];portConstraint=eastwest;fontColor=#000000;" parent="39" vertex="1"><mxGeometry y="199" width="217" height="40" as="geometry"/></mxCell><mxCell id="59" style="shape=partialRectangle;html=1;whiteSpace=wrap;connectable=0;fillColor=none;top=0;left=0;bottom=0;right=0;overflow=hidden;fontColor=#000000;" parent="58" vertex="1"><mxGeometry width="159" height="40" as="geometry"/></mxCell><mxCell id="60" value="5" style="shape=partialRectangle;html=1;whiteSpace=wrap;connectable=0;fillColor=none;top=0;left=0;bottom=0;right=0;overflow=hidden;fontColor=#000000;fontSize=15;" parent="58" vertex="1"><mxGeometry x="159" width="58" height="40" as="geometry"/></mxCell><mxCell id="55" style="shape=partialRectangle;html=1;whiteSpace=wrap;collapsible=0;dropTarget=0;pointerEvents=0;fillColor=none;top=0;left=0;bottom=0;right=0;points=[[0,0.5],[1,0.5]];portConstraint=eastwest;fontColor=#000000;" parent="39" vertex="1"><mxGeometry y="239" width="217" height="39" as="geometry"/></mxCell><mxCell id="56" style="shape=partialRectangle;html=1;whiteSpace=wrap;connectable=0;fillColor=none;top=0;left=0;bottom=0;right=0;overflow=hidden;fontColor=#000000;" parent="55" vertex="1"><mxGeometry width="159" height="39" as="geometry"/></mxCell><mxCell id="57" value="6" style="shape=partialRectangle;html=1;whiteSpace=wrap;connectable=0;fillColor=none;top=0;left=0;bottom=0;right=0;overflow=hidden;fontColor=#000000;fontSize=15;" parent="55" vertex="1"><mxGeometry x="159" width="58" height="39" as="geometry"/></mxCell><mxCell id="67" style="shape=partialRectangle;html=1;whiteSpace=wrap;collapsible=0;dropTarget=0;pointerEvents=0;fillColor=none;top=0;left=0;bottom=0;right=0;points=[[0,0.5],[1,0.5]];portConstraint=eastwest;fontColor=#000000;" parent="39" vertex="1"><mxGeometry y="278" width="217" height="40" as="geometry"/></mxCell><mxCell id="68" style="shape=partialRectangle;html=1;whiteSpace=wrap;connectable=0;fillColor=none;top=0;left=0;bottom=0;right=0;overflow=hidden;fontColor=#000000;" parent="67" vertex="1"><mxGeometry width="159" height="40" as="geometry"/></mxCell><mxCell id="69" value="7" style="shape=partialRectangle;html=1;whiteSpace=wrap;connectable=0;fillColor=none;top=0;left=0;bottom=0;right=0;overflow=hidden;fontColor=#000000;fontSize=15;" parent="67" vertex="1"><mxGeometry x="159" width="58" height="40" as="geometry"/></mxCell><mxCell id="73" value="&lt;font&gt;&lt;span style=&quot;font-size: 24px&quot;&gt;{ &lt;/span&gt;&lt;font color=&quot;#ad731c&quot; style=&quot;font-size: 36px&quot;&gt;&lt;b&gt;&quot;nails&quot;&lt;/b&gt;&lt;/font&gt;&lt;span style=&quot;font-size: 24px&quot;&gt;= &lt;/span&gt;&lt;font color=&quot;#90c772&quot; style=&quot;font-size: 24px&quot;&gt;1000 &lt;/font&gt;&lt;span style=&quot;font-size: 24px&quot;&gt;}&lt;/span&gt;&lt;/font&gt;" style="text;html=1;strokeColor=none;fillColor=none;align=left;verticalAlign=middle;whiteSpace=wrap;rounded=0;fontColor=#000000;" parent="1" vertex="1"><mxGeometry x="94" y="16632" width="228" height="20" as="geometry"/></mxCell><mxCell id="74" value="" style="html=1;whiteSpace=wrap;shape=isoCube2;backgroundOutline=1;isoAngle=15;fontColor=#000000;align=left;shadow=1;sketch=1;" parent="1" vertex="1"><mxGeometry x="350" y="16635" width="90" height="100" as="geometry"/></mxCell><mxCell id="75" value="" style="html=1;aspect=fixed;strokeColor=none;shadow=1;align=center;verticalAlign=top;fillColor=#3B8DF1;shape=mxgraph.gcp2.gear;fontColor=#000000;strokeWidth=1;sketch=0;" parent="1" vertex="1"><mxGeometry x="413" y="16698" width="46" height="46" as="geometry"/></mxCell><mxCell id="76" value="&lt;font style=&quot;font-size: 24px&quot;&gt;Hash&lt;/font&gt;" style="text;html=1;strokeColor=none;fillColor=none;align=left;verticalAlign=middle;whiteSpace=wrap;rounded=0;fontColor=#000000;fontStyle=1" parent="1" vertex="1"><mxGeometry x="369" y="16519" width="66" height="20" as="geometry"/></mxCell><mxCell id="77" value="&lt;font style=&quot;font-size: 24px&quot;&gt;Address space&lt;/font&gt;" style="text;html=1;strokeColor=none;fillColor=none;align=left;verticalAlign=middle;whiteSpace=wrap;rounded=0;fontColor=#000000;fontStyle=1" parent="1" vertex="1"><mxGeometry x="618" y="16519" width="176" height="20" as="geometry"/></mxCell><mxCell id="78" value="&lt;font style=&quot;font-size: 24px&quot;&gt;Key-value pair&lt;/font&gt;" style="text;html=1;strokeColor=none;fillColor=none;align=left;verticalAlign=middle;whiteSpace=wrap;rounded=0;fontColor=#000000;fontStyle=1" parent="1" vertex="1"><mxGeometry x="98" y="16519" width="170" height="20" as="geometry"/></mxCell><mxCell id="79" value="" style="edgeStyle=segmentEdgeStyle;endArrow=classic;html=1;fontColor=#000000;entryX=0.5;entryY=0;entryDx=0;entryDy=0;entryPerimeter=0;exitX=0.25;exitY=0;exitDx=0;exitDy=0;strokeWidth=4;sketch=1;curved=1;strokeColor=#b85450;fillColor=#f8cecc;" parent="1" source="73" target="74" edge="1"><mxGeometry width="50" height="50" relative="1" as="geometry"><mxPoint x="174" y="16600" as="sourcePoint"/><mxPoint x="224" y="16550" as="targetPoint"/><Array as="points"><mxPoint x="151" y="16580"/><mxPoint x="395" y="16580"/></Array></mxGeometry></mxCell><mxCell id="80" value="" style="edgeStyle=segmentEdgeStyle;endArrow=classic;html=1;fontColor=#000000;entryX=0;entryY=0.5;entryDx=0;entryDy=0;strokeWidth=4;sketch=1;curved=1;strokeColor=#b85450;fillColor=#f8cecc;" parent="1" target="48" edge="1"><mxGeometry width="50" height="50" relative="1" as="geometry"><mxPoint x="440" y="16685" as="sourcePoint"/><mxPoint x="703" y="16669.5" as="targetPoint"/><Array as="points"><mxPoint x="536" y="16685"/><mxPoint x="536" y="16650"/></Array></mxGeometry></mxCell><mxCell id="81" value="&lt;span style=&quot;font-size: 20px ; text-align: left&quot;&gt;{&amp;nbsp;&lt;/span&gt;&lt;font color=&quot;#ad731c&quot; style=&quot;font-size: 20px ; text-align: left&quot;&gt;&lt;b&gt;&quot;nails&quot;&lt;/b&gt;&lt;/font&gt;&lt;span style=&quot;font-size: 20px ; text-align: left&quot;&gt;=&amp;nbsp;&lt;/span&gt;&lt;font color=&quot;#90c772&quot; style=&quot;font-size: 20px ; text-align: left&quot;&gt;1000&amp;nbsp;&lt;/font&gt;&lt;span style=&quot;font-size: 20px ; text-align: left&quot;&gt;}&lt;/span&gt;" style="text;html=1;align=center;verticalAlign=middle;resizable=0;points=[];autosize=1;fontColor=#000000;" parent="1" vertex="1"><mxGeometry x="601" y="16640" width="160" height="21" as="geometry"/></mxCell><mxCell id="82" value="&lt;font style=&quot;font-size: 20px&quot;&gt;&lt;span&gt;{ &lt;/span&gt;&lt;font color=&quot;#ad731c&quot; style=&quot;font-size: 20px&quot;&gt;&lt;b&gt;&quot;nails&quot;&lt;/b&gt;&lt;/font&gt;&lt;span&gt;= &lt;/span&gt;&lt;font color=&quot;#90c772&quot; style=&quot;font-size: 20px&quot;&gt;1000 &lt;/font&gt;&lt;span&gt;}&lt;/span&gt;&lt;/font&gt;" style="text;html=1;strokeColor=none;fillColor=none;align=left;verticalAlign=middle;whiteSpace=wrap;rounded=0;fontColor=#000000;" parent="1" vertex="1"><mxGeometry x="391" y="16744" width="161" height="20" as="geometry"/></mxCell><mxCell id="83" value="&lt;font&gt;&lt;font color=&quot;#90c772&quot; style=&quot;font-size: 48px&quot;&gt;&lt;b&gt;2&lt;/b&gt;&lt;/font&gt;&lt;/font&gt;" style="text;html=1;strokeColor=none;fillColor=none;align=left;verticalAlign=middle;whiteSpace=wrap;rounded=0;fontColor=#000000;" parent="1" vertex="1"><mxGeometry x="462" y="16685" width="29" height="50" as="geometry"/></mxCell><mxCell id="146" value="&lt;font&gt;&lt;b&gt;&lt;font style=&quot;font-size: 30px&quot;&gt;get&lt;/font&gt;&lt;font style=&quot;font-size: 30px&quot;&gt;(&lt;/font&gt;&lt;span style=&quot;color: rgb(173 , 115 , 28) ; font-size: 36px&quot;&gt;&quot;bolts&quot;&lt;/span&gt;&lt;font style=&quot;font-size: 30px&quot;&gt;)&lt;/font&gt;&lt;/b&gt;&lt;/font&gt;" style="text;html=1;strokeColor=none;fillColor=none;align=left;verticalAlign=middle;whiteSpace=wrap;rounded=0;fontColor=#000000;" vertex="1" parent="1"><mxGeometry x="73.5" y="17054" width="228" height="20" as="geometry"/></mxCell><mxCell id="147" value="" style="html=1;whiteSpace=wrap;shape=isoCube2;backgroundOutline=1;isoAngle=15;fontColor=#000000;align=left;shadow=1;sketch=1;" vertex="1" parent="1"><mxGeometry x="329.5" y="17057" width="90" height="100" as="geometry"/></mxCell><mxCell id="148" value="" style="html=1;aspect=fixed;strokeColor=none;shadow=1;align=center;verticalAlign=top;fillColor=#3B8DF1;shape=mxgraph.gcp2.gear;fontColor=#000000;strokeWidth=1;sketch=0;" vertex="1" parent="1"><mxGeometry x="392.5" y="17120" width="46" height="46" as="geometry"/></mxCell><mxCell id="149" value="&lt;font style=&quot;font-size: 24px&quot;&gt;Hash&lt;/font&gt;" style="text;html=1;strokeColor=none;fillColor=none;align=left;verticalAlign=middle;whiteSpace=wrap;rounded=0;fontColor=#000000;fontStyle=1" vertex="1" parent="1"><mxGeometry x="348.5" y="16941" width="66" height="20" as="geometry"/></mxCell><mxCell id="150" value="&lt;font style=&quot;font-size: 24px&quot;&gt;Address space&lt;/font&gt;" style="text;html=1;strokeColor=none;fillColor=none;align=left;verticalAlign=middle;whiteSpace=wrap;rounded=0;fontColor=#000000;fontStyle=1" vertex="1" parent="1"><mxGeometry x="597.5" y="16941" width="176" height="20" as="geometry"/></mxCell><mxCell id="151" value="&lt;font style=&quot;font-size: 24px&quot;&gt;Key-value pair&lt;/font&gt;" style="text;html=1;strokeColor=none;fillColor=none;align=left;verticalAlign=middle;whiteSpace=wrap;rounded=0;fontColor=#000000;fontStyle=1" vertex="1" parent="1"><mxGeometry x="77.5" y="16941" width="170" height="20" as="geometry"/></mxCell><mxCell id="152" value="" style="edgeStyle=segmentEdgeStyle;endArrow=classic;html=1;fontColor=#000000;entryX=0.5;entryY=0;entryDx=0;entryDy=0;entryPerimeter=0;exitX=0.25;exitY=0;exitDx=0;exitDy=0;strokeWidth=4;sketch=1;curved=1;strokeColor=#b85450;fillColor=#f8cecc;" edge="1" source="146" target="147" parent="1"><mxGeometry width="50" height="50" relative="1" as="geometry"><mxPoint x="153.5" y="17022" as="sourcePoint"/><mxPoint x="203.5" y="16972" as="targetPoint"/><Array as="points"><mxPoint x="130.5" y="17002"/><mxPoint x="374.5" y="17002"/></Array></mxGeometry></mxCell><mxCell id="153" value="" style="edgeStyle=segmentEdgeStyle;endArrow=classic;html=1;fontColor=#000000;entryX=0;entryY=0.5;entryDx=0;entryDy=0;strokeWidth=4;sketch=1;curved=1;strokeColor=#b85450;fillColor=#f8cecc;" edge="1" target="134" parent="1"><mxGeometry width="50" height="50" relative="1" as="geometry"><mxPoint x="419.5" y="17107" as="sourcePoint"/><mxPoint x="682.5" y="17091.5" as="targetPoint"/><Array as="points"><mxPoint x="516" y="17107"/><mxPoint x="516" y="17151"/></Array></mxGeometry></mxCell><mxCell id="154" value="&lt;span style=&quot;font-size: 18px; text-align: left;&quot;&gt;{&amp;nbsp;&lt;/span&gt;&lt;font color=&quot;#ad731c&quot; style=&quot;font-size: 18px; text-align: left;&quot;&gt;&lt;b style=&quot;font-size: 18px;&quot;&gt;&quot;nails&quot;&lt;/b&gt;&lt;/font&gt;&lt;span style=&quot;font-size: 18px; text-align: left;&quot;&gt;=&amp;nbsp;&lt;/span&gt;&lt;font color=&quot;#90c772&quot; style=&quot;font-size: 18px; text-align: left;&quot;&gt;1000&amp;nbsp;&lt;/font&gt;&lt;span style=&quot;font-size: 18px; text-align: left;&quot;&gt;}&lt;/span&gt;" style="text;html=1;align=center;verticalAlign=middle;resizable=0;points=[];autosize=1;fontColor=#000000;fontSize=18;" vertex="1" parent="1"><mxGeometry x="588.5" y="17050" width="147" height="26" as="geometry"/></mxCell><mxCell id="155" value="&lt;font&gt;&lt;font&gt;&lt;b&gt;&lt;font color=&quot;#ad731c&quot; style=&quot;font-size: 15px&quot;&gt;&quot;bolts&quot; = &lt;/font&gt;&lt;font color=&quot;#97d077&quot; style=&quot;font-size: 15px&quot;&gt;index &lt;/font&gt;&lt;font color=&quot;#97d077&quot; style=&quot;font-size: 20px&quot;&gt;4&lt;/font&gt;&lt;/b&gt;&lt;/font&gt;&lt;/font&gt;" style="text;html=1;strokeColor=none;fillColor=none;align=left;verticalAlign=middle;whiteSpace=wrap;rounded=0;fontColor=#000000;fontSize=15;" vertex="1" parent="1"><mxGeometry x="420.5" y="17154" width="161" height="20" as="geometry"/></mxCell><mxCell id="157" value="&lt;span style=&quot;font-size: 20px ; text-align: left&quot;&gt;{&amp;nbsp;&lt;/span&gt;&lt;font color=&quot;#ad731c&quot; style=&quot;font-size: 20px ; text-align: left&quot;&gt;&lt;b&gt;&quot;bolts&quot;&lt;/b&gt;&lt;/font&gt;&lt;span style=&quot;font-size: 20px ; text-align: left&quot;&gt;=&amp;nbsp;&lt;/span&gt;&lt;font color=&quot;#90c772&quot; style=&quot;font-size: 20px ; text-align: left&quot;&gt;&lt;b&gt;1400&lt;/b&gt;&lt;/font&gt;&lt;span style=&quot;font-size: 20px ; text-align: left&quot;&gt;}&lt;/span&gt;" style="text;html=1;align=center;verticalAlign=middle;resizable=0;points=[];autosize=1;fontColor=#000000;" vertex="1" parent="1"><mxGeometry x="587" y="17139" width="157" height="21" as="geometry"/></mxCell><mxCell id="158" value="&lt;span style=&quot;font-size: 20px ; text-align: left&quot;&gt;{&amp;nbsp;&lt;/span&gt;&lt;font color=&quot;#ad731c&quot; style=&quot;font-size: 20px ; text-align: left&quot;&gt;&lt;b&gt;&quot;screws&quot;&lt;/b&gt;&lt;/font&gt;&lt;span style=&quot;font-size: 20px ; text-align: left&quot;&gt;=&amp;nbsp;&lt;/span&gt;&lt;font color=&quot;#90c772&quot; style=&quot;font-size: 20px ; text-align: left&quot;&gt;800&lt;/font&gt;&lt;span style=&quot;font-size: 20px ; text-align: left&quot;&gt;}&lt;/span&gt;" style="text;html=1;align=center;verticalAlign=middle;resizable=0;points=[];autosize=1;fontColor=#000000;" vertex="1" parent="1"><mxGeometry x="578" y="17220" width="166" height="21" as="geometry"/></mxCell><mxCell id="159" value="&lt;span style=&quot;font-size: 18px; text-align: left;&quot;&gt;{&amp;nbsp;&lt;/span&gt;&lt;font color=&quot;#ad731c&quot; style=&quot;font-size: 18px; text-align: left;&quot;&gt;&lt;b style=&quot;font-size: 18px;&quot;&gt;&quot;nuts&quot;&lt;/b&gt;&lt;/font&gt;&lt;span style=&quot;font-size: 18px; text-align: left;&quot;&gt;=&amp;nbsp;&lt;/span&gt;&lt;font color=&quot;#90c772&quot; style=&quot;font-size: 18px; text-align: left;&quot;&gt;1200&amp;nbsp;&lt;/font&gt;&lt;span style=&quot;font-size: 18px; text-align: left;&quot;&gt;}&lt;/span&gt;" style="text;html=1;align=center;verticalAlign=middle;resizable=0;points=[];autosize=1;fontColor=#000000;fontSize=18;" vertex="1" parent="1"><mxGeometry x="589.5" y="17070" width="144" height="26" as="geometry"/></mxCell><mxCell id="160" value="&lt;b style=&quot;font-size: 24px;&quot;&gt;&lt;font color=&quot;#856794&quot; style=&quot;font-size: 24px;&quot;&gt;1&lt;/font&gt;&lt;/b&gt;" style="text;html=1;align=center;verticalAlign=middle;resizable=0;points=[];autosize=1;fontSize=24;rounded=1;fillColor=#f5f5f5;strokeColor=#666666;fontColor=#333333;" vertex="1" parent="1"><mxGeometry x="138" y="16977" width="23" height="34" as="geometry"/></mxCell><mxCell id="161" value="&lt;b style=&quot;font-size: 24px&quot;&gt;&lt;font color=&quot;#856794&quot; style=&quot;font-size: 24px&quot;&gt;2&lt;/font&gt;&lt;/b&gt;" style="text;html=1;align=center;verticalAlign=middle;resizable=0;points=[];autosize=1;fontSize=24;rounded=1;fillColor=#f5f5f5;strokeColor=#666666;fontColor=#333333;" vertex="1" parent="1"><mxGeometry x="431" y="17066" width="23" height="34" as="geometry"/></mxCell><mxCell id="163" value="" style="edgeStyle=segmentEdgeStyle;endArrow=classic;html=1;fontColor=#000000;strokeWidth=4;sketch=1;curved=1;strokeColor=#b85450;fillColor=#f8cecc;exitX=0.773;exitY=1.211;exitDx=0;exitDy=0;exitPerimeter=0;" edge="1" parent="1" source="157" target="146"><mxGeometry width="50" height="50" relative="1" as="geometry"><mxPoint x="537" y="17304" as="sourcePoint"/><mxPoint x="222" y="17212" as="targetPoint"/><Array as="points"><mxPoint x="708" y="17197"/><mxPoint x="537" y="17197"/><mxPoint x="537" y="17234"/><mxPoint x="136" y="17234"/></Array></mxGeometry></mxCell><mxCell id="166" value="&lt;span style=&quot;color: rgb(144, 199, 114); font-family: helvetica; font-size: 32px; font-style: normal; letter-spacing: normal; text-align: left; text-indent: 0px; text-transform: none; word-spacing: 0px;&quot;&gt;1400&lt;/span&gt;" style="text;whiteSpace=wrap;html=1;fontSize=32;fontStyle=1" vertex="1" parent="1"><mxGeometry x="454" y="17234" width="79" height="46" as="geometry"/></mxCell><mxCell id="168" value="&lt;font&gt;&lt;font&gt;&lt;b&gt;&lt;font style=&quot;font-size: 15px&quot;&gt;value associated with the key: &lt;/font&gt;&lt;font color=&quot;#ad731c&quot; style=&quot;font-size: 15px&quot;&gt;&quot;bolts&quot;&lt;/font&gt;&lt;/b&gt;&lt;/font&gt;&lt;/font&gt;" style="text;html=1;strokeColor=none;fillColor=none;align=center;verticalAlign=middle;whiteSpace=wrap;rounded=0;fontColor=#000000;fontSize=15;" vertex="1" parent="1"><mxGeometry x="403" y="17290" width="161" height="20" as="geometry"/></mxCell><mxCell id="169" value="&lt;b style=&quot;font-size: 24px&quot;&gt;&lt;font color=&quot;#856794&quot; style=&quot;font-size: 24px&quot;&gt;3&lt;/font&gt;&lt;/b&gt;" style="text;html=1;align=center;verticalAlign=middle;resizable=0;points=[];autosize=1;fontSize=24;rounded=1;fillColor=#f5f5f5;strokeColor=#666666;fontColor=#333333;" vertex="1" parent="1"><mxGeometry x="552" y="17207" width="23" height="34" as="geometry"/></mxCell><mxCell id="197" value="&lt;font style=&quot;font-size: 24px&quot;&gt;Big O&lt;/font&gt;" style="text;html=1;strokeColor=none;fillColor=none;align=left;verticalAlign=middle;whiteSpace=wrap;rounded=0;fontColor=#000000;fontStyle=1" vertex="1" parent="1"><mxGeometry x="57" y="17650" width="176" height="20" as="geometry"/></mxCell><mxCell id="203" value="nails" style="ellipse;whiteSpace=wrap;html=1;rounded=1;fillColor=#dae8fc;fontSize=20;align=center;strokeColor=#6c8ebf;fontColor=#000000;direction=south;sketch=1;" vertex="1" parent="1"><mxGeometry x="371" y="17852" width="48" height="48" as="geometry"/></mxCell><mxCell id="204" value="" style="shape=flexArrow;endArrow=classic;html=1;fontSize=20;fontColor=#000000;fillColor=#f8cecc;strokeColor=#b85450;endWidth=18;endSize=7.33;sketch=1;" edge="1" parent="1"><mxGeometry width="50" height="50" relative="1" as="geometry"><mxPoint x="312" y="17876" as="sourcePoint"/><mxPoint x="363" y="17876" as="targetPoint"/></mxGeometry></mxCell><mxCell id="206" value="" style="shape=flexArrow;endArrow=classic;html=1;fontSize=20;fontColor=#000000;fillColor=#f8cecc;strokeColor=#b85450;endWidth=18;endSize=7.33;sketch=1;" edge="1" parent="1"><mxGeometry width="50" height="50" relative="1" as="geometry"><mxPoint x="419" y="17875.8" as="sourcePoint"/><mxPoint x="470" y="17875.8" as="targetPoint"/></mxGeometry></mxCell><mxCell id="207" value="nuts" style="ellipse;whiteSpace=wrap;html=1;rounded=1;fillColor=#dae8fc;fontSize=20;align=center;strokeColor=#6c8ebf;fontColor=#000000;direction=south;sketch=1;" vertex="1" parent="1"><mxGeometry x="470" y="17852" width="48" height="48" as="geometry"/></mxCell><mxCell id="208" value="" style="shape=flexArrow;endArrow=classic;html=1;fontSize=20;fontColor=#000000;fillColor=#f8cecc;strokeColor=#b85450;endWidth=18;endSize=7.33;sketch=1;" edge="1" parent="1"><mxGeometry width="50" height="50" relative="1" as="geometry"><mxPoint x="518" y="17875.8" as="sourcePoint"/><mxPoint x="569" y="17875.8" as="targetPoint"/></mxGeometry></mxCell><mxCell id="209" value="paint" style="ellipse;whiteSpace=wrap;html=1;rounded=1;fillColor=#dae8fc;fontSize=20;align=center;strokeColor=#6c8ebf;fontColor=#000000;direction=south;sketch=1;" vertex="1" parent="1"><mxGeometry x="567" y="17852" width="48" height="48" as="geometry"/></mxCell><mxCell id="210" value="" style="shape=flexArrow;endArrow=classic;html=1;fontSize=20;fontColor=#000000;fillColor=#f8cecc;strokeColor=#b85450;endWidth=18;endSize=7.33;sketch=1;" edge="1" parent="1"><mxGeometry width="50" height="50" relative="1" as="geometry"><mxPoint x="615" y="17875.8" as="sourcePoint"/><mxPoint x="666" y="17875.8" as="targetPoint"/></mxGeometry></mxCell><mxCell id="213" value="bolts" style="ellipse;whiteSpace=wrap;html=1;rounded=1;fillColor=#dae8fc;fontSize=20;align=center;strokeColor=#6c8ebf;fontColor=#000000;direction=south;sketch=1;" vertex="1" parent="1"><mxGeometry x="366.5" y="17933" width="48" height="48" as="geometry"/></mxCell><mxCell id="214" value="" style="shape=flexArrow;endArrow=classic;html=1;fontSize=20;fontColor=#000000;fillColor=#f8cecc;strokeColor=#b85450;endWidth=18;endSize=7.33;sketch=1;" edge="1" parent="1"><mxGeometry width="50" height="50" relative="1" as="geometry"><mxPoint x="307.5" y="17957" as="sourcePoint"/><mxPoint x="358.5" y="17957" as="targetPoint"/></mxGeometry></mxCell><mxCell id="215" value="screws" style="ellipse;whiteSpace=wrap;html=1;rounded=1;fillColor=#dae8fc;fontSize=20;align=center;strokeColor=#6c8ebf;fontColor=#000000;direction=south;sketch=1;" vertex="1" parent="1"><mxGeometry x="365" y="18012" width="48" height="48" as="geometry"/></mxCell><mxCell id="216" value="" style="shape=flexArrow;endArrow=classic;html=1;fontSize=20;fontColor=#000000;fillColor=#f8cecc;strokeColor=#b85450;endWidth=18;endSize=7.33;sketch=1;" edge="1" parent="1"><mxGeometry width="50" height="50" relative="1" as="geometry"><mxPoint x="306" y="18036" as="sourcePoint"/><mxPoint x="357" y="18036" as="targetPoint"/></mxGeometry></mxCell><mxCell id="218" value="" style="html=1;whiteSpace=wrap;shape=isoCube2;backgroundOutline=1;isoAngle=15;fontColor=#000000;align=left;shadow=1;sketch=1;" vertex="1" parent="1"><mxGeometry x="562" y="17987" width="90" height="100" as="geometry"/></mxCell><mxCell id="217" value="" style="html=1;aspect=fixed;strokeColor=none;shadow=1;align=center;verticalAlign=top;fillColor=#3B8DF1;shape=mxgraph.gcp2.gear;fontColor=#000000;strokeWidth=1;sketch=0;" vertex="1" parent="1"><mxGeometry x="625" y="18050" width="46" height="46" as="geometry"/></mxCell><mxCell id="220" value="" style="shape=flexArrow;endArrow=classic;html=1;fontSize=20;fillColor=#f8cecc;strokeColor=#b85450;endWidth=18;endSize=7.33;sketch=1;fontColor=#000000;" edge="1" parent="1"><mxGeometry width="50" height="50" relative="1" as="geometry"><mxPoint x="312" y="17797" as="sourcePoint"/><mxPoint x="363" y="17797" as="targetPoint"/></mxGeometry></mxCell><mxCell id="219" value="washers" style="ellipse;whiteSpace=wrap;html=1;rounded=1;fillColor=#dae8fc;fontSize=20;align=center;strokeColor=#6c8ebf;direction=south;sketch=1;fontColor=#000000;" vertex="1" parent="1"><mxGeometry x="371" y="17773" width="48" height="48" as="geometry"/></mxCell><mxCell id="246" value="nails" style="ellipse;whiteSpace=wrap;html=1;rounded=1;fillColor=#dae8fc;fontSize=20;align=center;strokeColor=#6c8ebf;fontColor=#000000;direction=south;sketch=1;" vertex="1" parent="1"><mxGeometry x="278" y="18232" width="48" height="48" as="geometry"/></mxCell><mxCell id="247" value="" style="shape=flexArrow;endArrow=classic;html=1;fontSize=20;fontColor=#000000;fillColor=#f8cecc;strokeColor=#b85450;endWidth=18;endSize=7.33;sketch=1;" edge="1" parent="1"><mxGeometry width="50" height="50" relative="1" as="geometry"><mxPoint x="219" y="18256" as="sourcePoint"/><mxPoint x="270" y="18256" as="targetPoint"/></mxGeometry></mxCell><mxCell id="248" value="" style="shape=flexArrow;endArrow=classic;html=1;fontSize=20;fontColor=#000000;fillColor=#f8cecc;strokeColor=#b85450;endWidth=18;endSize=7.33;sketch=1;" edge="1" parent="1"><mxGeometry width="50" height="50" relative="1" as="geometry"><mxPoint x="325.9999999999998" y="18255.8" as="sourcePoint"/><mxPoint x="377" y="18255.8" as="targetPoint"/></mxGeometry></mxCell><mxCell id="249" value="nuts" style="ellipse;whiteSpace=wrap;html=1;rounded=1;fillColor=#dae8fc;fontSize=20;align=center;strokeColor=#6c8ebf;fontColor=#000000;direction=south;sketch=1;" vertex="1" parent="1"><mxGeometry x="377" y="18232" width="48" height="48" as="geometry"/></mxCell><mxCell id="250" value="" style="shape=flexArrow;endArrow=classic;html=1;fontSize=20;fontColor=#000000;fillColor=#f8cecc;strokeColor=#b85450;endWidth=18;endSize=7.33;sketch=1;" edge="1" parent="1"><mxGeometry width="50" height="50" relative="1" as="geometry"><mxPoint x="425" y="18255.8" as="sourcePoint"/><mxPoint x="475.9999999999998" y="18255.8" as="targetPoint"/></mxGeometry></mxCell><mxCell id="251" value="paint" style="ellipse;whiteSpace=wrap;html=1;rounded=1;fillColor=#dae8fc;fontSize=20;align=center;strokeColor=#6c8ebf;fontColor=#000000;direction=south;sketch=1;" vertex="1" parent="1"><mxGeometry x="474" y="18232" width="48" height="48" as="geometry"/></mxCell><mxCell id="252" value="" style="shape=flexArrow;endArrow=classic;html=1;fontSize=20;fontColor=#000000;fillColor=#f8cecc;strokeColor=#b85450;endWidth=18;endSize=7.33;sketch=1;" edge="1" parent="1"><mxGeometry width="50" height="50" relative="1" as="geometry"><mxPoint x="522" y="18255.8" as="sourcePoint"/><mxPoint x="573" y="18255.8" as="targetPoint"/></mxGeometry></mxCell><mxCell id="253" value="bolts" style="ellipse;whiteSpace=wrap;html=1;rounded=1;fillColor=#dae8fc;fontSize=20;align=center;strokeColor=#6c8ebf;fontColor=#000000;direction=south;sketch=1;" vertex="1" parent="1"><mxGeometry x="688" y="18232" width="48" height="48" as="geometry"/></mxCell><mxCell id="254" value="" style="shape=flexArrow;endArrow=classic;html=1;fontSize=20;fontColor=#000000;fillColor=#f8cecc;strokeColor=#b85450;endWidth=18;endSize=7.33;sketch=1;" edge="1" parent="1"><mxGeometry width="50" height="50" relative="1" as="geometry"><mxPoint x="629" y="18256" as="sourcePoint"/><mxPoint x="680" y="18256" as="targetPoint"/></mxGeometry></mxCell><mxCell id="255" value="screws" style="ellipse;whiteSpace=wrap;html=1;rounded=1;fillColor=#dae8fc;fontSize=20;align=center;strokeColor=#6c8ebf;fontColor=#000000;direction=south;sketch=1;" vertex="1" parent="1"><mxGeometry x="795" y="18232" width="48" height="48" as="geometry"/></mxCell><mxCell id="256" value="" style="shape=flexArrow;endArrow=classic;html=1;fontSize=20;fontColor=#000000;fillColor=#f8cecc;strokeColor=#b85450;endWidth=18;endSize=7.33;sketch=1;" edge="1" parent="1"><mxGeometry width="50" height="50" relative="1" as="geometry"><mxPoint x="736" y="18256" as="sourcePoint"/><mxPoint x="787" y="18256" as="targetPoint"/></mxGeometry></mxCell><mxCell id="257" value="" style="html=1;whiteSpace=wrap;shape=isoCube2;backgroundOutline=1;isoAngle=15;fontColor=#000000;align=left;shadow=1;sketch=1;" vertex="1" parent="1"><mxGeometry x="469" y="18367" width="90" height="100" as="geometry"/></mxCell><mxCell id="258" value="" style="html=1;aspect=fixed;strokeColor=none;shadow=1;align=center;verticalAlign=top;fillColor=#3B8DF1;shape=mxgraph.gcp2.gear;fontColor=#000000;strokeWidth=1;sketch=0;" vertex="1" parent="1"><mxGeometry x="532" y="18430" width="46" height="46" as="geometry"/></mxCell><mxCell id="259" value="" style="shape=flexArrow;endArrow=classic;html=1;fontSize=20;fillColor=#f8cecc;strokeColor=#b85450;endWidth=18;endSize=7.33;sketch=1;fontColor=#000000;" edge="1" parent="1"><mxGeometry width="50" height="50" relative="1" as="geometry"><mxPoint x="522" y="18256" as="sourcePoint"/><mxPoint x="573" y="18256" as="targetPoint"/></mxGeometry></mxCell><mxCell id="260" value="washers" style="ellipse;whiteSpace=wrap;html=1;rounded=1;fillColor=#dae8fc;fontSize=20;align=center;strokeColor=#6c8ebf;direction=south;sketch=1;fontColor=#000000;" vertex="1" parent="1"><mxGeometry x="581" y="18232" width="48" height="48" as="geometry"/></mxCell><mxCell id="286" value="nails" style="ellipse;whiteSpace=wrap;html=1;rounded=1;fillColor=#dae8fc;fontSize=20;align=center;strokeColor=#6c8ebf;fontColor=#000000;direction=south;sketch=1;" vertex="1" parent="1"><mxGeometry x="366.5" y="18629" width="48" height="48" as="geometry"/></mxCell><mxCell id="287" value="" style="shape=flexArrow;endArrow=classic;html=1;fontSize=20;fontColor=#000000;fillColor=#f8cecc;strokeColor=#b85450;endWidth=18;endSize=7.33;sketch=1;" edge="1" parent="1"><mxGeometry width="50" height="50" relative="1" as="geometry"><mxPoint x="307.5" y="18653" as="sourcePoint"/><mxPoint x="358.5" y="18653" as="targetPoint"/></mxGeometry></mxCell><mxCell id="288" value="" style="shape=flexArrow;endArrow=classic;html=1;fontSize=20;fontColor=#000000;fillColor=#f8cecc;strokeColor=#b85450;endWidth=18;endSize=7.33;sketch=1;" edge="1" parent="1"><mxGeometry width="50" height="50" relative="1" as="geometry"><mxPoint x="309.5" y="18858.8" as="sourcePoint"/><mxPoint x="360.5" y="18858.8" as="targetPoint"/></mxGeometry></mxCell><mxCell id="289" value="nuts" style="ellipse;whiteSpace=wrap;html=1;rounded=1;fillColor=#dae8fc;fontSize=20;align=center;strokeColor=#6c8ebf;fontColor=#000000;direction=south;sketch=1;" vertex="1" parent="1"><mxGeometry x="360.5" y="18835" width="48" height="48" as="geometry"/></mxCell><mxCell id="290" value="" style="shape=flexArrow;endArrow=classic;html=1;fontSize=20;fontColor=#000000;fillColor=#f8cecc;strokeColor=#b85450;endWidth=18;endSize=7.33;sketch=1;" edge="1" parent="1"><mxGeometry width="50" height="50" relative="1" as="geometry"><mxPoint x="418.9999999999998" y="18733.8" as="sourcePoint"/><mxPoint x="470" y="18733.8" as="targetPoint"/></mxGeometry></mxCell><mxCell id="291" value="bolts" style="ellipse;whiteSpace=wrap;html=1;rounded=1;fillColor=#dae8fc;fontSize=20;align=center;strokeColor=#6c8ebf;fontColor=#000000;direction=south;sketch=1;" vertex="1" parent="1"><mxGeometry x="468" y="18710" width="48" height="48" as="geometry"/></mxCell><mxCell id="293" value="paint" style="ellipse;whiteSpace=wrap;html=1;rounded=1;fillColor=#dae8fc;fontSize=20;align=center;strokeColor=#6c8ebf;fontColor=#000000;direction=south;sketch=1;" vertex="1" parent="1"><mxGeometry x="362" y="18710" width="48" height="48" as="geometry"/></mxCell><mxCell id="294" value="" style="shape=flexArrow;endArrow=classic;html=1;fontSize=20;fontColor=#000000;fillColor=#f8cecc;strokeColor=#b85450;endWidth=18;endSize=7.33;sketch=1;" edge="1" parent="1"><mxGeometry width="50" height="50" relative="1" as="geometry"><mxPoint x="303" y="18734" as="sourcePoint"/><mxPoint x="354" y="18734" as="targetPoint"/></mxGeometry></mxCell><mxCell id="295" value="screws" style="ellipse;whiteSpace=wrap;html=1;rounded=1;fillColor=#dae8fc;fontSize=20;align=center;strokeColor=#6c8ebf;fontColor=#000000;direction=south;sketch=1;" vertex="1" parent="1"><mxGeometry x="360.5" y="18785" width="48" height="48" as="geometry"/></mxCell><mxCell id="296" value="" style="shape=flexArrow;endArrow=classic;html=1;fontSize=20;fontColor=#000000;fillColor=#f8cecc;strokeColor=#b85450;endWidth=18;endSize=7.33;sketch=1;" edge="1" parent="1"><mxGeometry width="50" height="50" relative="1" as="geometry"><mxPoint x="301.5" y="18809" as="sourcePoint"/><mxPoint x="352.5" y="18809" as="targetPoint"/></mxGeometry></mxCell><mxCell id="297" value="" style="html=1;whiteSpace=wrap;shape=isoCube2;backgroundOutline=1;isoAngle=15;fontColor=#000000;align=left;shadow=1;sketch=1;" vertex="1" parent="1"><mxGeometry x="557.5" y="18764" width="90" height="100" as="geometry"/></mxCell><mxCell id="298" value="" style="html=1;aspect=fixed;strokeColor=none;shadow=1;align=center;verticalAlign=top;fillColor=#3B8DF1;shape=mxgraph.gcp2.gear;fontColor=#000000;strokeWidth=1;sketch=0;" vertex="1" parent="1"><mxGeometry x="620.5" y="18827" width="46" height="46" as="geometry"/></mxCell><mxCell id="299" value="" style="shape=flexArrow;endArrow=classic;html=1;fontSize=20;fillColor=#f8cecc;strokeColor=#b85450;endWidth=18;endSize=7.33;sketch=1;fontColor=#000000;" edge="1" parent="1"><mxGeometry width="50" height="50" relative="1" as="geometry"><mxPoint x="307.5" y="18574" as="sourcePoint"/><mxPoint x="358.5" y="18574" as="targetPoint"/></mxGeometry></mxCell><mxCell id="300" value="washers" style="ellipse;whiteSpace=wrap;html=1;rounded=1;fillColor=#dae8fc;fontSize=20;align=center;strokeColor=#6c8ebf;direction=south;sketch=1;fontColor=#000000;" vertex="1" parent="1"><mxGeometry x="366.5" y="18550" width="48" height="48" as="geometry"/></mxCell></root></mxGraphModel></diagram></mxfile>